<svg width="48" height="48" viewBox="0 0 48 48" xmlns="http://www.w3.org/2000/svg" fill="none">
  <g opacity="0.18">
    <path fill-rule="evenodd" clip-rule="evenodd" d="M12 11H11V12H12V11Z" fill="#e8e8e8"/>
    <path fill-rule="evenodd" clip-rule="evenodd" d="M12 23H11V24H12V23Z" fill="#e8e8e8"/>
    <path fill-rule="evenodd" clip-rule="evenodd" d="M11 35H12V36H11V35Z" fill="#e8e8e8"/>
    <path fill-rule="evenodd" clip-rule="evenodd" d="M12 47H11V48H12V47Z" fill="#e8e8e8"/>
    <path fill-rule="evenodd" clip-rule="evenodd" d="M23 11H24V12H23V11Z" fill="#e8e8e8"/>
    <path fill-rule="evenodd" clip-rule="evenodd" d="M24 23H23V24H24V23Z" fill="#e8e8e8"/>
    <path fill-rule="evenodd" clip-rule="evenodd" d="M23 35H24V36H23V35Z" fill="#e8e8e8"/>
    <path fill-rule="evenodd" clip-rule="evenodd" d="M24 47H23V48H24V47Z" fill="#e8e8e8"/>
    <path fill-rule="evenodd" clip-rule="evenodd" d="M35 11H36V12H35V11Z" fill="#e8e8e8"/>
    <path fill-rule="evenodd" clip-rule="evenodd" d="M36 23H35V24H36V23Z" fill="#e8e8e8"/>
    <path fill-rule="evenodd" clip-rule="evenodd" d="M35 35H36V36H35V35Z" fill="#e8e8e8"/>
    <path fill-rule="evenodd" clip-rule="evenodd" d="M36 47H35V48H36V47Z" fill="#e8e8e8"/>
    <path fill-rule="evenodd" clip-rule="evenodd" d="M47 11H48V12H47V11Z" fill="#e8e8e8"/>
    <path fill-rule="evenodd" clip-rule="evenodd" d="M48 23H47V24H48V23Z" fill="#e8e8e8"/>
    <path fill-rule="evenodd" clip-rule="evenodd" d="M47 35H48V36H47V35Z" fill="#e8e8e8"/>
    <path fill-rule="evenodd" clip-rule="evenodd" d="M48 47H47V48H48V47Z" fill="#e8e8e8"/>
    <path fill-rule="evenodd" clip-rule="evenodd" d="M12 5H11V6H12V5Z" fill="#e8e8e8"/>
    <path fill-rule="evenodd" clip-rule="evenodd" d="M12 17H11V18H12V17Z" fill="#e8e8e8"/>
    <path fill-rule="evenodd" clip-rule="evenodd" d="M11 29H12V30H11V29Z" fill="#e8e8e8"/>
    <path fill-rule="evenodd" clip-rule="evenodd" d="M12 41H11V42H12V41Z" fill="#e8e8e8"/>
    <path fill-rule="evenodd" clip-rule="evenodd" d="M23 5H24V6H23V5Z" fill="#e8e8e8"/>
    <path fill-rule="evenodd" clip-rule="evenodd" d="M24 17H23V18H24V17Z" fill="#e8e8e8"/>
    <path fill-rule="evenodd" clip-rule="evenodd" d="M23 29H24V30H23V29Z" fill="#e8e8e8"/>
    <path fill-rule="evenodd" clip-rule="evenodd" d="M24 41H23V42H24V41Z" fill="#e8e8e8"/>
    <path fill-rule="evenodd" clip-rule="evenodd" d="M35 5H36V6H35V5Z" fill="#e8e8e8"/>
    <path fill-rule="evenodd" clip-rule="evenodd" d="M36 17H35V18H36V17Z" fill="#e8e8e8"/>
    <path fill-rule="evenodd" clip-rule="evenodd" d="M35 29H36V30H35V29Z" fill="#e8e8e8"/>
    <path fill-rule="evenodd" clip-rule="evenodd" d="M36 41H35V42H36V41Z" fill="#e8e8e8"/>
    <path fill-rule="evenodd" clip-rule="evenodd" d="M47 5H48V6H47V5Z" fill="#e8e8e8"/>
    <path fill-rule="evenodd" clip-rule="evenodd" d="M48 17H47V18H48V17Z" fill="#e8e8e8"/>
    <path fill-rule="evenodd" clip-rule="evenodd" d="M47 29H48V30H47V29Z" fill="#e8e8e8"/>
    <path fill-rule="evenodd" clip-rule="evenodd" d="M48 41H47V42H48V41Z" fill="#e8e8e8"/>
    <path fill-rule="evenodd" clip-rule="evenodd" d="M6 11H5V12H6V11Z" fill="#e8e8e8"/>
    <path fill-rule="evenodd" clip-rule="evenodd" d="M6 23H5V24H6V23Z" fill="#e8e8e8"/>
    <path fill-rule="evenodd" clip-rule="evenodd" d="M5 35H6V36H5V35Z" fill="#e8e8e8"/>
    <path fill-rule="evenodd" clip-rule="evenodd" d="M6 47H5V48H6V47Z" fill="#e8e8e8"/>
    <path fill-rule="evenodd" clip-rule="evenodd" d="M17 11H18V12H17V11Z" fill="#e8e8e8"/>
    <path fill-rule="evenodd" clip-rule="evenodd" d="M18 23H17V24H18V23Z" fill="#e8e8e8"/>
    <path fill-rule="evenodd" clip-rule="evenodd" d="M17 35H18V36H17V35Z" fill="#e8e8e8"/>
    <path fill-rule="evenodd" clip-rule="evenodd" d="M18 47H17V48H18V47Z" fill="#e8e8e8"/>
    <path fill-rule="evenodd" clip-rule="evenodd" d="M29 11H30V12H29V11Z" fill="#e8e8e8"/>
    <path fill-rule="evenodd" clip-rule="evenodd" d="M30 23H29V24H30V23Z" fill="#e8e8e8"/>
    <path fill-rule="evenodd" clip-rule="evenodd" d="M29 35H30V36H29V35Z" fill="#e8e8e8"/>
    <path fill-rule="evenodd" clip-rule="evenodd" d="M30 47H29V48H30V47Z" fill="#e8e8e8"/>
    <path fill-rule="evenodd" clip-rule="evenodd" d="M41 11H42V12H41V11Z" fill="#e8e8e8"/>
    <path fill-rule="evenodd" clip-rule="evenodd" d="M42 23H41V24H42V23Z" fill="#e8e8e8"/>
    <path fill-rule="evenodd" clip-rule="evenodd" d="M41 35H42V36H41V35Z" fill="#e8e8e8"/>
    <path fill-rule="evenodd" clip-rule="evenodd" d="M42 47H41V48H42V47Z" fill="#e8e8e8"/>
    <path fill-rule="evenodd" clip-rule="evenodd" d="M6 5H5V6H6V5Z" fill="#e8e8e8"/>
    <path fill-rule="evenodd" clip-rule="evenodd" d="M6 17H5V18H6V17Z" fill="#e8e8e8"/>
    <path fill-rule="evenodd" clip-rule="evenodd" d="M5 29H6V30H5V29Z" fill="#e8e8e8"/>
    <path fill-rule="evenodd" clip-rule="evenodd" d="M6 41H5V42H6V41Z" fill="#e8e8e8"/>
    <path fill-rule="evenodd" clip-rule="evenodd" d="M17 5H18V6H17V5Z" fill="#e8e8e8"/>
    <path fill-rule="evenodd" clip-rule="evenodd" d="M18 17H17V18H18V17Z" fill="#e8e8e8"/>
    <path fill-rule="evenodd" clip-rule="evenodd" d="M17 29H18V30H17V29Z" fill="#e8e8e8"/>
    <path fill-rule="evenodd" clip-rule="evenodd" d="M18 41H17V42H18V41Z" fill="#e8e8e8"/>
    <path fill-rule="evenodd" clip-rule="evenodd" d="M29 5H30V6H29V5Z" fill="#e8e8e8"/>
    <path fill-rule="evenodd" clip-rule="evenodd" d="M30 17H29V18H30V17Z" fill="#e8e8e8"/>
    <path fill-rule="evenodd" clip-rule="evenodd" d="M29 29H30V30H29V29Z" fill="#e8e8e8"/>
    <path fill-rule="evenodd" clip-rule="evenodd" d="M30 41H29V42H30V41Z" fill="#e8e8e8"/>
    <path fill-rule="evenodd" clip-rule="evenodd" d="M41 5H42V6H41V5Z" fill="#e8e8e8"/>
    <path fill-rule="evenodd" clip-rule="evenodd" d="M42 17H41V18H42V17Z" fill="#e8e8e8"/>
    <path fill-rule="evenodd" clip-rule="evenodd" d="M41 29H42V30H41V29Z" fill="#e8e8e8"/>
    <path fill-rule="evenodd" clip-rule="evenodd" d="M42 41H41V42H42V41Z" fill="#e8e8e8"/>
  </g>
  <g opacity="0.55">
    <g clip-path="url(#clip0_dark)">
      <path d="M20 27H22V28H19V25H20V27ZM28 28H25V27H27V25H28V28ZM22 20H20V22H19V19H22V20ZM28 22H27V20H25V19H28V22Z" fill="#6b9fff"/>
      <path d="M44 51H46V52H43V49H44V51ZM52 52H49V51H51V49H52V52ZM46 44H44V46H43V43H46V44ZM52 46H51V44H49V43H52V46Z" fill="#6b9fff"/>
      <path d="M-4 3H-2V4H-5V1H-4V3ZM4 4H1V3H3V1H4V4ZM-2 -4H-4V-2H-5V-5H-2V-4ZM4 -2H3V-4H1V-5H4V-2Z" fill="#6b9fff"/>
      <path d="M44 3H46V4H43V1H44V3ZM52 4H49V3H51V1H52V4ZM46 -4H44V-2H43V-5H46V-4ZM52 -2H51V-4H49V-5H52V-2Z" fill="#6b9fff"/>
      <path d="M-4 51H-2V52H-5V49H-4V51ZM4 52H1V51H3V49H4V52ZM-2 44H-4V46H-5V43H-2V44ZM4 46H3V44H1V43H4V46Z" fill="#6b9fff"/>
    </g>
    <defs>
      <clipPath id="clip0_dark">
        <rect width="48" height="48" fill="white"/>
      </clipPath>
    </defs>
  </g>
</svg>
